<?xml version="1.0" encoding="utf-8"?>
<!-- Generator: Adobe Illustrator 27.5.0, SVG Export Plug-In . SVG Version: 6.00 Build 0)  -->
<svg version="1.1" id="Ñëîé_1" xmlns="http://www.w3.org/2000/svg" xmlns:xlink="http://www.w3.org/1999/xlink" x="0px" y="0px"
	 viewBox="0 0 2600 2000" style="enable-background:new 0 0 2600 2000;" xml:space="preserve">
<rect id="_x36_" style="fill:#FFFFFF;" width="2600" height="2000"/>
<g>
	<g id="_x35_">
		<path style="fill:#D4E8FF;" d="M519.547,1652.94c0,0-283.728-716.306-79.548-875.809
			c136.475-106.613,281.132,128.409,453.79,4.078c153.714-110.69-60.591-389.533,195.886-462.478
			c269.58-76.673,490.435,544.253,716.632,458.401c274.476-104.177,547.507,107.303,311.558,877.177L519.547,1652.94z"/>
		<path style="fill:#DCE6FF;" d="M1198.292,90.846l-2.043,11.187c14.309,2.488,28.446,7.37,42.01,14.508l5.534-10.006
			C1229.126,98.828,1213.822,93.545,1198.292,90.846z M1149.895,90.319c-16.179,2.436-31.385,8.034-45.187,16.659l6.279,9.563
			c12.429-7.75,26.111-12.8,40.68-14.993L1149.895,90.319z M1312.302,164.294c-0.811-0.98-1.643-1.94-2.464-2.9
			c-5.847-6.79-11.781-13.127-17.768-18.958c-3.069-3.005-6.15-5.862-9.241-8.593l-7.814,8.435c2.81,2.478,5.62,5.082,8.419,7.813
			c5.685,5.504,11.337,11.503,16.904,17.935c1.037,1.192,2.064,2.404,3.091,3.638c0.94,1.118,1.881,2.246,2.81,3.385l9.111-7.085
			C1314.334,166.73,1313.329,165.507,1312.302,164.294z M1069.334,138.968c-9.078,11.25-17.562,24.62-25.214,39.74l10.451,5.029
			c7.284-14.413,15.336-27.108,23.917-37.736L1069.334,138.968z M1360.094,234.369c-5.728-10.07-11.532-19.622-17.303-28.532
			l-3.967,2.446l-5.879,3.627c1.859,2.868,3.729,5.81,5.588,8.815c3.858,6.221,7.717,12.726,11.553,19.464
			c2.043,3.606,4.085,7.275,6.117,11.008l10.289-5.335C1364.374,241.971,1362.245,238.133,1360.094,234.369z M1026.049,221.695
			c-4.766,13.612-9.252,28.563-13.315,44.432l11.305,2.762c3.977-15.563,8.365-30.208,13.034-43.514L1026.049,221.695z
			 M1387.47,287.204l-10.57,4.776c6.182,13.032,12.494,27.087,18.751,41.775l10.754-4.365
			C1400.093,314.565,1393.717,300.362,1387.47,287.204z M1002.693,311.254c-2.745,14.266-5.339,29.575-7.695,45.486l11.532,1.624
			c2.335-15.753,4.896-30.893,7.62-45.012L1002.693,311.254z M1440.05,414.921c-3.761-10.238-7.382-19.896-10.948-29.206
			c-1.761-4.597-3.512-9.121-5.263-13.581l-6.312,2.351l-4.572,1.698c4.442,11.356,8.906,23.07,13.564,35.628
			c0.875,2.372,1.761,4.776,2.659,7.212l10.97-3.838C1440.114,415.1,1440.082,415.005,1440.05,414.921z M989.022,402.416
			c-1.664,14.424-3.242,29.818-4.701,45.771l11.608,1.002c1.448-15.858,3.015-31.168,4.669-45.507L989.022,402.416z M1997.22,446.12
			l-1.081,11.324c14.374,1.307,28.986,4.977,43.415,10.913l4.528-10.47C2028.552,451.498,2012.783,447.544,1997.22,446.12z
			 M1948.769,451.445c-14.212,4.502-28.684,11.746-43.004,21.53l6.679,9.31c13.38-9.131,26.814-15.869,39.924-20.033
			L1948.769,451.445z M1466.096,488.496c-3.804-11.05-7.187-20.771-10.397-29.934l-11.024,3.69
			c4.129,11.746,8.527,24.43,13.748,39.666c0.432,1.223,0.854,2.467,1.286,3.722l11.045-3.606
			C1469.122,497.29,1467.577,492.798,1466.096,488.496z M2085.779,481.2l-6.852,9.184c11.683,8.309,23.302,18.199,34.509,29.407
			l8.344-7.929C2110.107,500.189,2097.991,489.877,2085.779,481.2z M481.653,513.516l-1.578,11.261
			c13.661,1.824,27.96,6.326,42.496,13.391l5.188-10.175C512.088,520.38,496.578,515.509,481.653,513.516z M980.581,494.01
			c-1.048,14.34-2.053,29.343-3.059,45.855l11.629,0.675c1.005-16.469,1.999-31.431,3.048-45.718L980.581,494.01z M1869.332,503.268
			c-10.375,10.122-20.719,21.436-31.645,34.594l9.046,7.149c10.667-12.842,20.762-23.871,30.845-33.719L1869.332,503.268z
			 M432.878,517.26c-14.634,4.376-29.116,11.841-43.025,22.195l7.057,9.036c12.818-9.532,26.068-16.385,39.384-20.36L432.878,517.26
			z M2152.7,547.12l-9.295,6.864c8.916,11.493,17.671,24.061,26.014,37.357l9.933-5.947
			C2170.814,571.792,2161.843,558.918,2152.7,547.12z M568.19,553.119l-7.101,9.004c11.186,8.403,22.891,18.388,34.79,29.702
			l8.127-8.15C591.784,572.067,579.733,561.786,568.19,553.119z M1485.615,545.528l-10.786,3.511l-0.259,0.084
			c0.011,0.021,0.022,0.053,0.022,0.074c2.453,7.17,5.155,15.067,7.987,23.281c2.27,6.579,4.626,13.359,6.993,20.139l8.171-2.72
			l2.853-0.949C1495.266,573.701,1490.035,558.444,1485.615,545.528z M355.343,572.077c-9.468,10.923-18.903,23.555-28.057,37.546
			l9.813,6.116c8.884-13.559,18.006-25.79,27.138-36.334L355.343,572.077z M1809.144,574.681c-8.171,11.198-16.882,23.629-26.609,38
			l9.716,6.263c9.662-14.255,18.287-26.581,26.382-37.663L1809.144,574.681z M974.907,585.721
			c-0.832,15.457-1.61,30.64-2.399,45.834l11.64,0.569c0.778-15.183,1.556-30.366,2.388-45.813L974.907,585.721z M636.636,617.194
			l-8.722,7.539c9.673,10.639,19.508,22.026,30.078,34.826l9.079-7.128C656.381,639.494,646.428,627.959,636.636,617.194z
			 M2202.426,625.714l-10.386,5.156c6.798,13.043,13.423,26.866,19.692,41.1l10.699-4.492
			C2216.077,653.022,2209.344,638.967,2202.426,625.714z M1516.082,632.135l-10.959,3.849c5.944,16.069,11.391,30.155,16.676,43.071
			l10.818-4.207C1527.387,662.047,1521.983,648.077,1516.082,632.135z M1756.91,651.187c-8.657,13.138-17.206,26.149-25.485,38.432
			l9.738,6.242c8.311-12.336,16.871-25.358,25.55-38.527L1756.91,651.187z M303.671,649.701
			c-7.241,13.57-14.061,27.445-20.448,41.574l10.656,4.586c6.29-13.897,12.991-27.551,20.124-40.91L303.671,649.701z
			 M970.086,677.357c-0.962,17.471-1.859,32.433-2.745,45.75l9.349,0.59l2.28,0.148c0.065-0.97,0.13-1.94,0.184-2.921
			c0.832-12.621,1.664-26.708,2.561-42.956L970.086,677.357z M696.046,688.713l-9.284,6.864c8.408,10.839,17.292,22.5,27.949,36.714
			l9.403-6.717C713.414,711.319,704.497,699.605,696.046,688.713z M2239.81,710.307l-10.938,3.891
			c5.177,13.865,10.181,28.363,14.882,43.082l11.121-3.374C2250.132,739.007,2245.063,724.34,2239.81,710.307z M1551.077,716.601
			l-10.527,4.861c7.825,16.143,15.304,29.512,22.837,40.857l9.781-6.189C1565.906,745.217,1558.686,732.28,1551.077,716.601z
			 M1705.033,727.229c-9.651,13.001-18.33,23.671-26.447,32.507c-0.832,0.917-1.664,1.814-2.497,2.689l8.56,7.707
			c1.427-1.508,2.875-3.079,4.334-4.703c7.89-8.751,16.276-19.126,25.484-31.537L1705.033,727.229z M265.488,733.988
			c-5.382,14.202-10.462,28.89-15.088,43.651l11.132,3.321c4.572-14.551,9.576-29.027,14.882-43.029L265.488,733.988z
			 M1641.538,789.586c-13.531,6.252-26.068,6.242-38.811-1.603l-6.214,9.606c8.484,5.219,17.39,7.866,26.457,7.866
			c7.641,0,15.574-1.887,23.583-5.609L1641.538,789.586z M751.749,762.667l-9.424,6.674c8.462,11.377,18.287,24.567,27.754,37.041
			l9.359-6.759C770.003,787.192,760.201,774.023,751.749,762.667z M963.85,768.761c-1.502,16.997-3.113,31.843-4.896,45.412
			l1.924,0.242l9.63,1.213c0.54-4.102,1.059-8.308,1.567-12.663c1.2-10.217,2.313-21.193,3.383-33.224L963.85,768.761z
			 M2267.889,798.105l-11.261,2.91c3.88,14.339,7.608,29.217,11.056,44.231l11.37-2.488
			C2275.573,827.607,2271.812,812.582,2267.889,798.105z M237.831,822.029c-3.718,14.666-7.122,29.797-10.148,44.959l11.435,2.172
			c2.983-14.983,6.355-29.923,10.029-44.4L237.831,822.029z M825.047,856.771c-1.34-1.56-2.713-3.163-4.096-4.797
			c-4.204-4.977-8.592-10.291-13.185-15.995l-9.154,7.022c3.221,3.996,6.344,7.802,9.381,11.451c0,0.01,0.011,0.021,0.011,0.031
			c1.481,1.771,2.929,3.501,4.366,5.188c5.793,6.843,11.272,13.074,16.557,18.81l8.668-7.602
			C833.563,866.492,829.392,861.811,825.047,856.771z M957.301,860.219l-6.009-1.286c-0.032,0.169-0.076,0.337-0.119,0.496
			c-1.037,4.629-2.129,8.994-3.275,13.116c-0.854,3.1-1.74,6.052-2.659,8.868c-2.464,7.591-5.123,14.129-7.965,19.548l10.375,5.167
			c1.546-2.952,3.026-6.147,4.442-9.595c2.994-7.244,5.706-15.626,8.203-25.263c0.811-3.163,1.61-6.463,2.378-9.901L957.301,860.219
			z M897.826,919.011c-8.873-3.332-17.076-8.899-27.344-16.744l-7.36,8.804c11.607,8.889,20.913,15.099,31.213,18.821
			c4.074,1.476,8.311,2.562,12.893,3.268l1.243-11.292C904.721,921.247,901.23,920.287,897.826,919.011z M2288.542,887.759
			l-11.445,2.098c2.821,14.635,5.49,29.744,7.911,44.917l11.51-1.761C2294.076,917.735,2291.396,902.51,2288.542,887.759z
			 M219.814,912.358c-2.227,14.93-4.15,30.292-5.739,45.665l11.597,1.128c1.567-15.204,3.469-30.398,5.674-45.159L219.814,912.358z
			 M2303.089,978.478l-11.564,1.423c1.924,14.804,3.686,30.05,5.242,45.317l11.597-1.128
			C2306.797,1008.729,2305.013,993.387,2303.089,978.478z M210.347,1003.857c-0.908,15.046-1.535,30.493-1.859,45.929l11.651,0.232
			c0.313-15.288,0.94-30.588,1.837-45.497L210.347,1003.857z M2312.427,1069.809l-11.618,0.844
			c1.135,14.94,2.118,30.261,2.918,45.528l11.64-0.58C2314.556,1100.249,2313.573,1084.844,2312.427,1069.809z M220.02,1095.568
			l-11.64,0.169c0.238,15.088,0.746,30.535,1.513,45.918l11.64-0.559C220.765,1125.839,220.257,1110.519,220.02,1095.568z
			 M2317.248,1161.435l-11.64,0.338c0.443,14.983,0.746,30.335,0.875,45.623l11.651-0.095
			C2318.004,1191.928,2317.701,1176.502,2317.248,1161.435z M224.559,1186.582l-11.607,0.917c1.243,15.046,2.756,30.43,4.496,45.729
			l11.575-1.255C227.304,1216.79,225.802,1201.522,224.559,1186.582z M2306.44,1253.04c-0.162,15.014-0.475,30.366-0.929,45.644
			l11.64,0.327c0.465-15.341,0.778-30.767,0.94-45.855L2306.44,1253.04z M234.826,1277.227l-11.532,1.571
			c2.14,14.972,4.539,30.24,7.122,45.391l11.489-1.877C239.333,1307.266,236.955,1292.104,234.826,1277.227z M2303.738,1344.307
			c-0.713,15.046-1.589,30.377-2.572,45.592l11.629,0.717c0.994-15.267,1.859-30.672,2.583-45.781L2303.738,1344.307z
			 M250.206,1367.208l-11.435,2.161c2.951,14.877,6.15,29.997,9.511,44.959l11.381-2.436
			C256.323,1397.026,253.134,1381.991,250.206,1367.208z M2305.975,1436.081l-8.138-0.633c-0.249,2.984-0.497,5.989-0.746,8.994
			c-1.027,12.083-2.129,24.325-3.307,36.503l11.597,1.065c1.481-15.267,2.853-30.64,4.074-45.665L2305.975,1436.081z
			 M270.243,1456.346l-11.316,2.71c3.729,14.814,7.673,29.765,11.759,44.453l11.24-2.973
			C277.873,1485.942,273.939,1471.076,270.243,1456.346z M2289.029,1526.378c-1.081,9.626-2.227,19.39-3.416,29.164
			c-0.648,5.409-1.318,10.807-1.999,16.206l11.553,1.392c0.681-5.377,1.351-10.776,2.01-16.164
			c1.199-9.838,2.345-19.664,3.437-29.365L2289.029,1526.378z M298.721,1557.419c-1.351-4.312-2.691-8.646-4.01-12.979
			l-11.164,3.237c1.254,4.133,2.529,8.256,3.815,12.357c3.34,10.66,6.755,21.214,10.192,31.495l11.067-3.532
			C305.282,1578.011,301.964,1567.773,298.721,1557.419z"/>
		<path style="fill:#EEF7FF;" d="M2369,1418.659c-96.673-13.979-80.897,112.317-218.698,112.317
			c-125.99,0-166.297-480.961-257.966-343.474c-469.948,704.835-197.058-299.744-570.8-312.51
			c-168.995-5.772-281.606,170.025-323.133,481.283c-60.195,281.388-199.796-214.619-343.461-168.501
			c-91.306,29.31-80.849,343.203-206.84,343.203c-137.8,0-122.025-126.296-218.697-112.317
			c-104.084,15.051-135.173,238.593-135.173,238.593h2409.939C2504.173,1657.252,2473.084,1433.71,2369,1418.659z"/>
		<path style="fill:#DCE6FF;" d="M2283.39,1555.37c-88.937-5.969-74.424,47.961-201.197,47.961
			c-115.908,0-112.723-120.865-190.287-146.552c-142.839-47.304-260.598,192.108-315.976,71.952
			c-105.178-318.826-411.937-478.715-553.456,0c-55.378,120.156-184.88-94.245-315.976-71.952
			c-80.695,13.722-74.379,146.552-190.287,146.552c-126.773,0-112.26-53.93-201.196-47.961
			c-95.755,6.427-124.356,101.882-124.356,101.882h2217.085C2407.746,1657.252,2379.145,1561.797,2283.39,1555.37z"/>
		<path style="fill:#CFDDF9;" d="M94.234,1657.252c0,0-14.502,49.019,54.93,62.498c180.541,35.049,454.42-10.888,264.427,103.896
			c-92.716,56.015,431.865,90.799,1036.617,85.505c682.668-5.976,1023.177-46.426,806.414-102.348
			c-216.763-55.922,301.346-33.23,247.55-149.551H94.234z"/>
	</g>
	<g id="_x34_">
		<path style="fill:#FCB4B4;" d="M675.051,797.711c-1.325,15.467-1.166,29.198,0.168,36.802
			c-6.846-7.601-13.348-14.583-19.505-20.992c5.604-7.283,0.537-83.275-7.649-83.48c-7.876,0.761-3.144,65.636,1.426,77.074
			c-6.975-7.095-13.469-13.419-19.477-19.045c5.721-5.363-18.157-86.222-25.699-83.941c-7.436,2.428,12.249,67.792,19.122,77.883
			c-7.954-7.207-14.938-13.088-20.943-17.855c4.456-6.185-36.066-83.675-42.776-80.044c-6.484,3.383,24.922,63.252,33.716,73.118
			c-17.642-12.241-22.713-17.461-50.924-31.528c-56.793-28.433-62.66-18.331-5.31,10.064c27.68,14.81,35.366,11.247,55.795,27.495
			c-11.708-3.843-87.58-5.402-88.246,1.914c0.531,7.392,87.839,8.303,94.22,2.707c6.323,5.01,13.777,11.284,22.336,19.076
			c-10.416-3.32-88.698,2.591-88.535,10.279c1.33,7.359,86.81-0.181,92.662-6.481c6.24,5.799,13.012,12.35,20.32,19.76
			c-11.461-2.891-87.139,2.958-86.981,10.494c1.856,7.255,83.381,0.013,91.503-5.866c6.505,6.71,13.398,14.059,20.684,22.121
			c-11.475-2.885-87.117,2.964-86.958,10.497c1.927,7.23,82.705,0.057,91.224-5.744c6.015,6.744,12.284,13.96,18.8,21.667
			c-10.756-3.184-88.22,2.704-88.068,10.348c1.772,7.278,84.019-0.026,91.741-5.982c6.116,7.416,12.651,14.845,18.958,21.292
			c-10.353-2.079-85.851,14.572-84.417,22.357c2.756,7.106,81.865-11.461,88.121-18.612c7.579,7.527,15.129,14.209,22.57,20.166
			c-8.157-2.865-86.126,20.836-83.624,28.69c2.291,7.307,84.962-18.958,86.354-26.527c10.722,8.359,21.182,15.196,31.121,20.786
			c-10.223,0.19-76.178,34.512-72.511,41.927c4.437,6.571,74.169-30.913,77.114-39.408c12.845,6.849,24.716,11.631,35.005,14.953
			c-10.278,2.336-65.972,46.636-60.953,53.347c5.712,5.85,65.174-42.705,66.395-51.677c31.422,9.159,52.563,7,53.471,6.9
			l-0.54-4.963c-0.212,0.023-20.801,2.089-50.848-6.535c6.077-8.559,12.277-78.936,4.197-80.663
			c-8.457-0.211-13.692,69.106-9.715,78.987c-9.942-3.18-21.431-7.758-33.896-14.344c7.326-4.816,20.643-79.361,12.367-81.226
			c-8.59-1.087-20.305,70.557-16.206,79.148c-9.779-5.409-20.099-12.059-30.7-20.222c7.726-3.981,28.062-76.73,19.877-79.3
			c-8.426-1.718-26.549,66.897-23.582,76.394c-7.071-5.65-14.248-11.979-21.457-19.076c7.84-1.65,29.02-77.859,20.656-79.912
			c-8.463-1.837-26.934,68.23-23.502,77.065c-6.158-6.224-12.409-13.099-18.508-20.457c7.567-6.261,26.857-75.265,18.892-78.201
			c-7.997-1.556-24.798,60.583-23.683,72.487c-6.523-7.736-12.795-14.977-18.813-21.753c6.949-5.173,13.693-81.593,5.378-82.718
			C681.584,756.322,677.033,774.568,675.051,797.711z"/>
		<path style="fill:#EB5648;" d="M1943.171,346.428c-14.765-0.003-27.633,1.104-34.442,2.745
			c5.989-6.13,11.453-11.935,16.435-17.417c6.515,4.067,77.186-4.987,76.601-11.983c-1.646-6.309-61.461,1.898-71.769,6.601
			c5.51-6.217,10.374-11.986,14.657-17.302c4.403,4.63,76.865-20.182,74.096-26.688c-0.986-2.83-18.527,0.71-39.178,7.907
			c-13.157,4.586-24.394,9.548-30.567,13.279c5.498-7.077,9.893-13.254,13.389-18.534c5.006,3.907,71.741-34.506,67.712-40.32
			c-3.785-5.152-54.793,24.515-62.987,32.86c8.49-15.025,12.669-19.07,21.46-43.967c17.25-48.413,6.799-52.125-10.236-3.62
			c-9.448,23.981-4.731,30.138-16.508,47.641c1.78-10.35-9.468-72.402-16.165-71.993c-6.893,1.44,6.948,73.099,12.962,76.96
			c-3.66,5.52-8.316,12.051-14.219,19.595c1.436-9.383-17.254-72.758-24.02-71.534c-6.679,2.227,14.848,71.672,21.252,75.026
			c-4.403,5.5-9.428,11.491-15.168,17.978c0.805-10.257-17.32-71.35-23.974-70.203c-6.485,2.606,14.044,68.762,20.47,74.123
			c-5.206,5.774-10.945,11.91-17.287,18.417c0.787-10.281-17.322-71.304-23.971-70.158c-6.447,2.658,13.874,68.164,20.3,73.895
			c-5.315,5.376-11.03,10.992-17.165,16.845c1.194-9.725-17.279-72.241-24.009-71.055c-6.517,2.556,14.177,69.235,20.603,74.287
			c-5.87,5.461-11.616,11.205-16.767,16.983c0.138-9.346-28.101-69.535-34.613-67.274c-6.1,3.459,24.742,66.813,31.801,70.472
			c-5.587,6.479-10.651,13.102-15.168,19.848c1.276-7.565-34.132-69.42-40.372-66.201c-6.303,3.194,32.486,68.928,38.89,68.441
			c-5.604,8.631-10.378,17.522-14.306,26.879c-2.095-8.946-45.229-60.127-50.935-56.229c-5.136,4.802,41.977,59.099,49.396,60.041
			c-3.813,9.783-6.549,19.715-8.173,29.692c-3.999-8.585-54.83-50.891-59.771-46.106c-4.209,5.631,51.639,50.802,59.128,50.46
			c-3.432,26.333,2.061,43.484,2.303,44.22l4.159-1.365c-0.056-0.171-5.304-16.679-2.208-41.581
			c8.037,4.261,75.229,4.744,75.96-2.138c-0.856-6.822-66.586-6.407-75.321-2.357c1.332-8.337,3.725-18.054,7.857-28.721
			c4.716,5.505,77.088,11.513,77.803,4.511c-0.081-6.991-69.307-11.697-76.562-7.611c3.454-8.376,7.992-17.29,13.915-26.541
			c4.227,5.869,75.936,17.674,77.203,10.75c0.366-6.951-67.017-17.027-75.187-13.832c4.138-6.188,8.899-12.512,14.385-18.917
			c2.004,6.127,77.149,18.377,77.858,11.345c0.506-6.978-68.357-17.259-75.794-13.71c4.813-5.468,10.277-11.1,16.146-16.577
			c6.495,5.572,74.286,16.741,75.978,9.982c0.184-6.617-60.661-15.996-71.504-14.217c6.158-5.866,11.894-11.492,17.235-16.878
			c4.96,5.177,77.843,5.72,77.988-1.32C1982.768,348.866,1965.04,346.432,1943.171,346.428z"/>
		<path style="fill:#3A72AA;" d="M864.713,514.435c17.91-20.823,30.114-39.693,27.26-42.149
			c-7.197-4.799-60.835,58.409-63.986,69.954c-4.165-11.993-9.696-23.689-16.526-34.969c8.945-2.714,55.561-80.172,48.139-84.954
			c-7.942-3.523-50.16,68.975-50.867,80.569c-6.881-10.728-14.706-20.694-23.506-30.163c8.023-0.766,41.825-90.505,33.327-93.076
			c-8.435-2.576-38.831,81.479-35.643,90.626c-7.046-7.371-14.742-14.471-23.054-21.279c7.926-5.98,32.43-91.16,24.118-94.057
			c-8.566-1.313-30.45,79.092-28.287,90.709c-7.62-6.036-15.971-11.902-24.412-17.389c6.852-7.562,18.063-94.674,9.44-96.359
			c-8.594,0.068-17.914,81.235-14.351,93.096c-8.855-5.916-17.138-11.63-24.876-17.133c6.705-8.397,17.708-93.987,9.149-95.808
			c-8.486,0.1-17.678,79.34-14.499,91.978c-9.252-6.68-17.679-13.031-25.367-19.05c6.786-7.941,17.907-94.374,9.311-96.126
			c-8.491,0.1-17.689,79.43-14.492,92.033c-8.502-6.786-16.014-13.112-22.649-18.966c7.193-5.476,18.835-96.152,10.083-97.413
			c-8.645,0.027-18.05,82.305-14.261,93.69c-8.933-8.059-16.104-15.133-21.824-21.171c6.608-6.022,8.251-97.772-0.591-98.015
			c-8.376,1.022-8.878,80.054-4.445,92.562c-18.329-19.073-13.862-27.777-30.717-55.376c-31.543-56.314-43.689-49.495-11.88,6.692
			c16.28,28.939,22.268,32.955,36.047,49.758c-11.865-8.532-81.524-34.26-85.025-27.044c-3.712,8.066,87.125,41.166,92.483,35.254
			c5.465,5.777,12.237,12.469,20.568,20.037c-12.158-6.373-88.562-19.118-90.864-11.143c-2.001,8.648,92.974,23.686,97.436,17.009
			c6.448,5.652,13.711,11.738,21.871,18.24c-13.686-3.6-89.621-0.817-90.217,7.34c0.85,8.778,90.107,4.714,97.358-1.725
			c7.348,5.705,15.362,11.707,24.096,17.997c-12.743-2.506-91.444,10.867-91.017,19.324c1.755,8.667,91.692-7.73,96.77-15.216
			c7.771,5.51,16.083,11.231,24.969,17.158c-13.718,0.109-87.124,24.918-85.392,33.038c3.623,7.973,84.93-20.444,91.841-28.764
			c8.445,5.509,16.419,11.295,23.556,17.021c-9.897-2.811-93.009,24.837-90.809,33.338c2.418,8.535,92.698-22.839,93.873-30.858
			c8.171,6.74,15.427,13.535,21.883,20.297c-10.72-2.218-92.058,24.861-90.031,33.357c3.113,8.274,89.176-21.789,93.192-29.98
			c9.326,10.166,16.866,20.213,22.949,29.829c-9.782-3.51-94.557,17.309-93.077,25.959c2.448,8.494,90.582-14.549,95.282-22.391
			c7.417,12.305,12.476,23.81,15.926,33.837c-11.594-3.143-93.171,10.579-92.677,19.189c2.468,8.343,85.33-6.748,94.438-13.767
			c9.209,30.139,6.282,51.697,6.25,51.92c1.355,0.195,4.085,0.592,5.441,0.791c0.141-0.964,3.231-23.369-6.704-55.207
			C835.723,544.912,849.843,531.724,864.713,514.435z"/>
		<path style="fill:#8A9EDD;" d="M2052.187,674.968c-17.631-7.436-33.556-12.593-42.513-14.061
			c10.238-4.306,19.685-8.488,28.395-12.526c5.733,8.136,94.688,32.902,97.511,24.253c1.21-8.363-74.353-28.675-89.031-28.247
			c9.71-4.651,18.423-9.091,26.214-13.284c2.927,7.746,101.955,14.594,101.922,5.43c0.247-3.876-22.483-8.479-50.768-10.28
			c-18.021-1.147-33.938-0.878-43.189,0.47c10.129-5.684,18.487-10.848,25.32-15.394c4.011,7.187,103.046-5.091,101.162-14.063
			c-1.927-8.058-77.777,1.692-91.763,7.533c17.703-13.669,24.73-16.395,47.763-41.703c44.974-49.131,34.361-58.826-10.401-9.476
			c-23.356,23.883-20.822,33.609-43.698,48.583c7.336-11.464,25.143-91.231,16.938-94.114c-8.957-1.75-28.503,90.794-23.264,98.433
			c-7.15,4.75-15.998,10.204-26.845,16.243c6.438-10.482,16.024-95.575,7.327-97.519c-9.097-0.702-18.35,93.068-12.391,100.297
			c-8.027,4.352-17.045,8.977-27.164,13.834c6.125-11.843,15.236-93.927,6.712-95.907c-9.057-0.153-17.845,89.187-12.869,98.824
			c-9.124,4.275-19.067,8.713-29.917,13.29c6.116-11.882,15.211-93.874,6.693-95.853c-9.037-0.072-17.748,88.387-12.959,98.467
			c-9.054,3.744-18.706,7.575-28.979,11.475c6.321-11.012,15.733-94.971,7.099-96.942c-9.069-0.229-17.925,89.819-12.794,99.087
			c-9.76,3.566-19.512,7.533-28.573,11.841c4.87-11.091,1.447-97.187-7.467-97.765c-9.026,1.059-4.088,92.246,2.5,100.169
			c-9.934,4.924-19.316,10.284-28.107,16.067c5.333-8.392-5.814-100.086-14.885-99.383c-9.135,0.642,4.095,98.67,11.989,101.312
			c-11.038,7.486-21.215,15.7-30.616,24.897c2.002-11.739-23.744-94.575-32.521-92.792c-8.551,3.149,20.377,91.71,28.763,96.57
			c-9.478,9.764-17.746,20.247-24.709,31.344c-0.454-12.266-39.859-88.378-48.168-85.151c-7.861,4.606,36.093,86.666,45.209,90.027
			c-17.356,29.72-19.431,52.967-19.512,53.969l5.654,0.463c0.019-0.232,2.062-22.589,18.295-50.769
			c7.453,9.134,87.452,43.538,91.789,35.688c2.412-8.578-76.293-41.172-88.763-40.733c5.788-9.285,13.538-19.685,23.843-30.344
			c2.86,8.948,86.264,52.558,90.643,44.555c3.423-8.39-76.88-48.861-87.6-47.633c8.342-8.264,18.249-16.624,29.979-24.69
			c2.094,9.137,81.787,59.335,86.786,51.704c3.937-8.116-71.462-54.072-82.827-54.37c8.057-5.306,16.926-10.462,26.702-15.35
			c-0.691,8.326,82.881,60.785,87.268,52.745c4.117-8.079-72.944-55.024-83.613-54.53c8.5-4.107,17.861-8.081,27.627-11.668
			c4.952,9.924,80.287,57.39,85.709,50.17c3.551-7.81-64.39-49.641-78.234-52.975c10.308-3.905,19.99-7.737,29.08-11.48
			c3.318,8.679,90.083,46.019,93.799,37.685C2098.247,697.813,2078.301,685.982,2052.187,674.968z"/>
	</g>
	<g id="_x33_">
		<path style="fill:#8A9EDD;" d="M1851.066,358.085v1276.713c0,21.95-17.799,39.749-39.758,39.749H828.172
			c-22.032,0.103-39.884-18.189-39.758-39.749V358.085c0-21.95,17.799-39.749,39.758-39.749h983.136
			C1833.267,318.336,1851.066,336.135,1851.066,358.085z"/>
		<path style="fill:#7689D6;" d="M1851.066,358.085v1276.713c0,21.95-17.799,39.749-39.758,39.749H828.172
			c-20.374,0-37.157-15.314-39.482-35.055l-0.276-4.695c0,0,988.115-49.513,988.115-1316.463h4.116
			C1820.149,315.894,1848.909,316.865,1851.066,358.085z"/>
		<rect x="862.95" y="378.904" style="fill:#FFFFFF;" width="913.578" height="1200.519"/>
		<path style="fill:#F5FAFF;" d="M1776.529,378.904v1200.519h-738.741c285.248-102.322,718.608-390.867,738.064-1200.519H1776.529z"
			/>
		<path style="fill:#B1D2EF;" d="M1608.503,995.81c-80.214-1.439-80.201-120.644,0.002-122.071
			C1688.716,875.177,1688.704,994.383,1608.503,995.81z M1608.503,883.553c-67.316,1.207-67.305,101.246,0.002,102.443
			C1675.819,984.789,1675.808,884.75,1608.503,883.553z"/>
		<path style="fill:#EB5648;" d="M1615.046,963.307c-5.866,2.129-35.448-32.863-39.737-35.671c-9.03-9.108,4.761-22.922,13.88-13.88
			c0,0,25.857,25.857,25.857,25.857l58.153-58.154c9.099-9.023,22.926,4.753,13.879,13.88
			C1684.356,896.618,1617.958,968.373,1615.046,963.307z"/>
		<path style="fill:#B1D2EF;" d="M1608.503,1245.827c-80.214-1.439-80.201-120.644,0.003-122.071
			C1688.716,1125.194,1688.704,1244.4,1608.503,1245.827z M1608.503,1133.569c-67.316,1.207-67.305,101.246,0.002,102.443
			C1675.819,1234.805,1675.808,1134.766,1608.503,1133.569z"/>
		<path style="fill:#EB5648;" d="M1615.046,1212.415c-5.844,2.149-35.461-32.876-39.737-35.671c-9.03-9.108,4.761-22.92,13.88-13.88
			c0,0,25.857,25.857,25.857,25.857l58.153-58.153c9.099-9.022,22.926,4.753,13.879,13.88
			C1684.25,1145.783,1618.137,1217.377,1615.046,1212.415z"/>
		<path style="fill:#B1D2EF;" d="M1608.503,1495.843c-80.213-1.438-80.201-120.645,0.003-122.072
			C1688.717,1375.21,1688.703,1494.417,1608.503,1495.843z M1608.503,1383.586c-67.316,1.207-67.305,101.246,0.002,102.444
			C1675.818,1484.822,1675.808,1384.783,1608.503,1383.586z"/>
		<path style="fill:#EB5648;" d="M1615.046,1461.522c-5.844,2.149-35.461-32.876-39.737-35.671c-9.03-9.108,4.761-22.92,13.88-13.88
			c0,0,25.857,25.857,25.857,25.857l58.153-58.153c9.099-9.022,22.926,4.753,13.879,13.88
			C1684.25,1394.89,1618.137,1466.484,1615.046,1461.522z"/>
		<path style="fill:#FCB4B4;" d="M1609.077,293.829h-107.374v-62.332c0-15.064-12.214-27.269-27.278-27.269h-309.372
			c-15.064,0-27.278,12.205-27.278,27.269v62.332c-136.871,6.283-137.693-34.189-134.64,105.777
			c-0.002,15.066,12.203,27.279,27.267,27.279h578.675c15.064,0,27.269-12.214,27.269-27.278v-78.501
			C1636.346,306.042,1624.141,293.829,1609.077,293.829z M1319.74,276.324c-23.389-0.398-23.377-35.191,0.001-35.589
			C1343.121,241.137,1343.125,275.929,1319.74,276.324z"/>
		<path style="fill:#F49F9F;" d="M1636.346,321.106v78.501c0,15.064-12.205,27.278-27.269,27.278h-578.675
			c-15.064,0-27.269-12.214-27.269-27.278c0,0,471.292,25.941,471.292-195.38c15.064,0,27.278,12.205,27.278,27.269v62.332h107.374
			C1624.141,293.829,1636.346,306.042,1636.346,321.106z"/>
		<path style="fill:#F9C0C0;" d="M1319.74,204.228c-169.287,0-181.964,89.601-181.964,89.601v-62.332
			c0-15.064,12.214-27.269,27.278-27.269H1319.74z"/>
		<rect x="952.67" y="498.03" style="fill:#7689D6;" width="311.85" height="304.63"/>
		<g>
			<ellipse style="fill:#DCE6FF;" cx="1108.599" cy="608.214" rx="66.688" ry="65.956"/>
		</g>
		<path style="fill:#DCE6FF;" d="M1208.16,784.69v18.352h-199.12V784.69c0-54.98,44.57-99.56,99.56-99.56
			c27.49,0,52.38,11.14,70.4,29.16C1197.02,732.31,1208.16,757.2,1208.16,784.69z"/>
		<path style="fill:#8A9EDD;" d="M1705.709,561.714H1535.87c-6.903,0-12.5-5.596-12.5-12.5c0-6.904,5.597-12.5,12.5-12.5h169.839
			c6.903,0,12.5,5.596,12.5,12.5C1718.209,556.118,1712.612,561.714,1705.709,561.714z"/>
		<path style="fill:#8A9EDD;" d="M1491.639,561.714h-122.164c-6.903,0-12.5-5.597-12.5-12.5c0-6.903,5.597-12.5,12.5-12.5h122.164
			c6.903,0,12.5,5.597,12.5,12.5C1504.139,556.117,1498.542,561.714,1491.639,561.714z"/>
		<path style="fill:#8A9EDD;" d="M1705.709,640.098h-336.234c-6.903,0-12.5-5.596-12.5-12.5c0-6.904,5.597-12.5,12.5-12.5h336.234
			c6.903,0,12.5,5.596,12.5,12.5C1718.209,634.502,1712.612,640.098,1705.709,640.098z"/>
		<path style="fill:#8A9EDD;" d="M1705.709,796.867h-336.234c-6.903,0-12.5-5.596-12.5-12.5s5.597-12.5,12.5-12.5h336.234
			c6.903,0,12.5,5.596,12.5,12.5S1712.612,796.867,1705.709,796.867z"/>
		<path style="fill:#8A9EDD;" d="M1705.709,718.482h-84.176c-6.903,0-12.5-5.597-12.5-12.5c0-6.903,5.597-12.5,12.5-12.5h84.176
			c6.903,0,12.5,5.597,12.5,12.5C1718.209,712.886,1712.612,718.482,1705.709,718.482z"/>
		<path style="fill:#8A9EDD;" d="M1580.489,718.482h-211.015c-6.903,0-12.5-5.596-12.5-12.5s5.597-12.5,12.5-12.5h211.015
			c6.903,0,12.5,5.596,12.5,12.5S1587.393,718.482,1580.489,718.482z"/>
		<path style="fill:#8A9EDD;" d="M1474.569,909.032h-318.42c-6.903,0-12.5-5.596-12.5-12.5c0-6.904,5.597-12.5,12.5-12.5h318.42
			c6.903,0,12.5,5.596,12.5,12.5C1487.069,903.435,1481.473,909.032,1474.569,909.032z"/>
		<path style="fill:#8A9EDD;" d="M1108.6,909.032H952.092c-6.903,0-12.5-5.597-12.5-12.5c0-6.903,5.597-12.5,12.5-12.5H1108.6
			c6.903,0,12.5,5.597,12.5,12.5C1121.1,903.435,1115.503,909.032,1108.6,909.032z"/>
		<path style="fill:#8A9EDD;" d="M1474.569,1005.584h-137.654c-6.903,0-12.5-5.597-12.5-12.5s5.597-12.5,12.5-12.5h137.654
			c6.903,0,12.5,5.597,12.5,12.5S1481.473,1005.584,1474.569,1005.584z"/>
		<path style="fill:#8A9EDD;" d="M1286.886,1005.584H952.092c-6.903,0-12.5-5.597-12.5-12.5s5.597-12.5,12.5-12.5h334.794
			c6.903,0,12.5,5.596,12.5,12.5S1293.79,1005.584,1286.886,1005.584z"/>
		<path style="fill:#8A9EDD;" d="M1474.569,1488.344H952.092c-6.903,0-12.5-5.597-12.5-12.5s5.597-12.5,12.5-12.5h522.478
			c6.903,0,12.5,5.597,12.5,12.5S1481.473,1488.344,1474.569,1488.344z"/>
		<path style="fill:#8A9EDD;" d="M1474.569,1391.791h-261.239c-6.903,0-12.5-5.597-12.5-12.5s5.597-12.5,12.5-12.5h261.239
			c6.903,0,12.5,5.597,12.5,12.5S1481.473,1391.791,1474.569,1391.791z"/>
		<path style="fill:#8A9EDD;" d="M1175.287,1391.791H952.092c-6.904,0-12.5-5.597-12.5-12.5s5.596-12.5,12.5-12.5h223.195
			c6.903,0,12.5,5.597,12.5,12.5S1182.19,1391.791,1175.287,1391.791z"/>
		<path style="fill:#8A9EDD;" d="M1474.569,1295.239H952.092c-6.903,0-12.5-5.597-12.5-12.5s5.597-12.5,12.5-12.5h522.478
			c6.903,0,12.5,5.597,12.5,12.5S1481.473,1295.239,1474.569,1295.239z"/>
		<path style="fill:#8A9EDD;" d="M1474.569,1198.688h-134.591c-6.903,0-12.5-5.597-12.5-12.5s5.597-12.5,12.5-12.5h134.591
			c6.903,0,12.5,5.597,12.5,12.5S1481.473,1198.688,1474.569,1198.688z"/>
		<path style="fill:#8A9EDD;" d="M1299.203,1198.688h-130.799c-6.903,0-12.5-5.597-12.5-12.5s5.597-12.5,12.5-12.5h130.799
			c6.903,0,12.5,5.597,12.5,12.5S1306.106,1198.688,1299.203,1198.688z"/>
		<path style="fill:#8A9EDD;" d="M1122.447,1198.688H952.092c-6.904,0-12.5-5.597-12.5-12.5s5.596-12.5,12.5-12.5h170.355
			c6.903,0,12.5,5.597,12.5,12.5S1129.35,1198.688,1122.447,1198.688z"/>
		<path style="fill:#8A9EDD;" d="M1474.569,1102.136H952.092c-6.903,0-12.5-5.597-12.5-12.5s5.597-12.5,12.5-12.5h522.478
			c6.903,0,12.5,5.597,12.5,12.5S1481.473,1102.136,1474.569,1102.136z"/>
	</g>
	<g id="_x32__5_">
		<path style="fill:#F99370;" d="M2135.009,1861.5l1.189-0.62c0,0.832,1.029,3.722,1.861,3.722l35.153,0.724
			c0.832,0,1.344-1.567,1.344-2.399l2.998-0.858c0-5.264-0.433-7.172-2.759-11.246c-8.547-11.359,1.656-62.16,1.361-75.432
			c2.108-3.629-37.018-0.782-37.564-1.639c-0.879,0.001-1.572,0.75-1.502,1.627l4.605,58.048
			C2143.76,1844.448,2135.303,1851.11,2135.009,1861.5z"/>
		<path style="fill:#F99370;" d="M1961.138,1866.559h70.021c6.112-0.246,6.066-6.48,4.939-11.314
			c-3.855-17.425,2.96-57.437,4.223-75.358c0.337-3.281-2.239-6.134-5.538-6.134c-51.667-0.525-34.811-4.663-30.807,51.073
			c3.055,19.468-20.167,23.179-33.407,25.331C1961.852,1850.788,1947.274,1862.685,1961.138,1866.559z"/>
		<path style="fill:#103663;" d="M2038.764,1859.295c-0.189,3.433-1.891,7.35-5.868,7.264c0,0-72.631,0-72.631,0
			c-17.131-6.354,7.48-29.078,41.014-28.943c15.363,4.216,33.67,1.297,33.67,1.297S2039.894,1845.21,2038.764,1859.295z"/>
		<path style="fill:#103663;" d="M2171.984,1866.559h-31.043c-15.128-2.066-4.319-28.912,15.521-29.73
			C2176.408,1836.008,2187.101,1864.521,2171.984,1866.559z"/>
		<path style="fill:#E8C0A6;" d="M1977.579,1856.73c-0.609,0-1.187-0.363-1.43-0.965c-2.792-6.887-7.824-8.995-8.037-9.081
			c-3.925-6.195,7.482-1.782,10.897,7.923C1979.433,1855.592,1978.646,1856.75,1977.579,1856.73z"/>
		<path style="fill:#E8C0A6;" d="M1989.572,1855.283c-0.659,0-1.269-0.426-1.475-1.088c-2.467-7.976-9.412-11.662-9.483-11.698
			c-3.559-7.198,9.702,0.508,12.432,10.786C1991.365,1854.253,1990.589,1855.298,1989.572,1855.283z"/>
		<path style="fill:#E8C0A6;" d="M2003.22,1853.605c-0.639,0-1.236-0.399-1.458-1.036c-2.882-8.283-9.537-12.795-9.604-12.839
			C1988.221,1829.095,2009.954,1850.762,2003.22,1853.605z"/>
		<path style="fill:#E8C0A6;" d="M2167.593,1846.795c-8.623-5.231-21.851-0.517-21.901-0.138c-9.004-1.94,12.289-9.541,22.682-2.738
			C2169.728,1844.653,2169.106,1846.853,2167.593,1846.795z"/>
		<path style="fill:#0F2E54;" d="M1955.182,1859.295h83.581c-0.308,2.551-1.012,5.029-2.292,7.265h-76.207
			C1956.511,1866.565,1953.849,1862.802,1955.182,1859.295z"/>
		<path style="fill:#0F2E54;" d="M2171.984,1866.559h-31.043c-3.949,0.004-7.127-3.324-6.884-7.265h44.812
			C2179.109,1863.235,2175.934,1866.564,2171.984,1866.559z"/>
		<path style="fill:#1D3F70;" d="M2011.111,1328.395c-68.353,52.176-153.922,40.517-202.416,4.224l-2.529-24.801
			c111.852,8.667,139.547-52.473,211.015-77.525l-7.756,23.151C2009.425,1253.445,2011.874,1326.724,2011.111,1328.395z"/>
		<path style="fill:#3A72AA;" d="M1994.917,1820.093c26.348,9.879,55.553,2.346,55.553,2.346c-0.371-3.564-0.706-7.18-1.006-10.85
			c-9.95-123.288,23.357-297.049,26.78-309.698c0-0.009,0.009-0.018,0.009-0.018c0.159-0.609,0.256-0.838,0.265-0.644
			c21.867,142.879,43.531,261.36,53.692,316.676c25.96,12.137,52.299-5.231,52.299-5.231c0.159-4.993,0.291-9.897,0.406-14.766
			c5.989-95.997-7.709-390.576-57.3-448.097c-57.529,28.535-136.625,32.99-136.625,32.99
			C1975.759,1633.921,1976.402,1753.946,1994.917,1820.093z"/>
		<path style="fill:#F99370;" d="M2024.012,1227.725c-3.279-17.339-11.24-48.531,1.8-56.222c9.183-5.03,22.13,1.333,20.981,12.831
			c-0.978-0.407,1.473,31.413,4.893,39.784C2078.728,1227.503,2005.592,1265.941,2024.012,1227.725z"/>
		<path style="fill:#E57D61;" d="M2046.816,1182.864c0.013,0.488,0.01,0.986-0.023,1.471c-0.709-0.315,0.42,17.279,2.519,29.833
			c-10.891,7.351-24.109,7.072-26.599,6.983c-3.544-18.449-9.384-41.172,3.101-49.647
			C2034.357,1166.016,2046.745,1172.557,2046.816,1182.864z"/>
		<path style="fill:#23659B;" d="M2012.501,1815.109c-32.522-151.714,0.564-350.87,5.533-352.33
			C2020.579,1463.967,1991.677,1664.115,2012.501,1815.109z"/>
		<path style="fill:#23659B;" d="M2155.375,1812.66l-2.29-1.021c-25.388-161.443-53.216-354.703-49.692-357.459
			C2107.212,1454.715,2137.065,1647.417,2155.375,1812.66z"/>
		<path style="fill:#103663;" d="M2157.03,1433.82c-38.295,28.974-132.135,38.002-170.373,24.16
			c-12.889-5.458-14.692-48.871-13.197-91.508c2.292-56.834,16.144-97.92,42.372-135.899c0.323-0.132,5.307-2.346,8.167-2.83
			c-0.127,5.192,1.059,20.198,27.681-3.621c0.118,0.102,6.852-0.401,9.745,0.285c3.116,0.739,32.026,20.505,32.759,23.555
			c2.17,9.12,11.905,31.684,22.55,57.987c12.305,30.759,24.919,62.275,30.335,91.079
			C2149.18,1409.005,2164.625,1422.53,2157.03,1433.82z"/>
		<path style="fill:#23659B;" d="M2038.801,1810.064l10.664,1.526c-9.95-123.288,23.357-297.049,26.78-309.698
			c-2.082,5.098-15.666,39.914-25.774,104.624C2039.498,1676.781,2036.075,1774.437,2038.801,1810.064z"/>
		<path style="fill:#1D3F70;" d="M2061.683,1224.406c-8.764,14.945-47.457,38.23-45.861,6.18c0.327-0.152,5.297-2.354,8.175-2.845
			c-0.06,0.841-1.584,22.886,27.688-3.625C2051.652,1224.337,2056.191,1222.617,2061.683,1224.406z"/>
		<path style="fill:#23659B;" d="M2050.469,1822.436c0,0-29.206,7.536-55.553-2.346l-3.436-13.848c0,0,32.95,11.443,57.45-1.21
			C2049.398,1810.868,2049.912,1816.674,2050.469,1822.436z"/>
		<path style="fill:#23659B;" d="M2182.917,1797.907c-0.117,4.868-0.249,9.779-0.41,14.765c0,0-26.333,17.374-52.298,5.234
			c0,0-0.85-4.545-2.375-12.873C2127.833,1805.033,2155.793,1813.375,2182.917,1797.907z"/>
		<path style="fill:#1D3F70;" d="M2061.683,1224.406c0,0,75.402,0,97.888,95.94c18.193,77.622-23.608,121.415-103.551,143.145
			c0,0-2.502-9.881-13.254-13.035c0,0,38.271-29.546,47.907-64.892s0.662-76.629-13.411-106.371
			C2077.262,1279.193,2056.224,1246.662,2061.683,1224.406z"/>
		
			<rect x="1926.526" y="1185.361" transform="matrix(0.59 -0.8074 0.8074 0.59 -348.5055 2148.0349)" style="fill:#EB5648;" width="28.305" height="463.582"/>
		
			<rect x="2015.72" y="1360.999" transform="matrix(0.59 -0.8074 0.8074 0.59 -364.5569 2246.7676)" style="fill:#CE3932;" width="28.306" height="242.649"/>
		
			<ellipse transform="matrix(0.7071 -0.7071 0.7071 0.7071 -362.0978 1488.1401)" style="opacity:0.1;fill:#FFFFFF;" cx="1615.295" cy="1181.161" rx="170.165" ry="170.165"/>
		<path style="opacity:0.2;fill:#FFFFFF;" d="M1441.736,1243.021c5.973,16.847,14.42,32.915,25.247,47.595l10.11-10.11
			l10.173-10.173l217.189-217.189l20.291-20.291c-0.646-0.473-1.3-0.946-1.954-1.418c-14.349-10.307-29.7-18.25-45.57-23.9
			l-11.158,11.166l-11.474,11.473h-0.008l-190.215,190.216l-11.505,11.505L1441.736,1243.021z"/>
		<path style="opacity:0.2;fill:#FFFFFF;" d="M1483.957,1310.505c7.234,7.344,15.193,14.176,23.845,20.386
			c14.783,10.614,30.63,18.723,47.012,24.404l11.213-11.213l11.544-11.544l189.112-189.12l11.497-11.489l11.268-11.268
			c-9.251-26.816-24.515-50.96-44.798-70.857l-20.023,20.023l-220.648,220.656l-10.023,10.023L1483.957,1310.505z"/>
		<path style="fill:#CE3932;" d="M1554.811,1355.29c124.779,48.365,268.937-70.515,242.367-203.989
			c-23.753-158.932-237.648-211.017-331.605-77.638C1392.747,1171.576,1441.547,1318.308,1554.811,1355.29z M1724.625,1069.824
			c113.004,110.67,4.664,301.048-147.053,262.713c-53.881-12.582-100.077-58.161-113.205-112.148
			C1424.375,1069.095,1613.036,959.813,1724.625,1069.824z"/>
		<path style="fill:#F99370;" d="M1792.642,1330.82c-7.194,5.811-13.554-4.214-3.499-5.334l-0.129,0.096
			C1792.957,1322.502,1796.405,1328.025,1792.642,1330.82z"/>
		<path style="fill:#F99370;" d="M1787.589,1327.172c-9.329,5.025-12.015-7.594-2.971-5.909c-0.203,0.014,0.861-0.213,0.672-0.191
			C1789.816,1318.818,1791.613,1325.297,1787.589,1327.172z"/>
		<path style="fill:#F99370;" d="M1782.173,1323.519l-3.468,0.666c-4.876,0.758-4.225-6.35-0.146-6.859c0,0,3.468-0.666,3.468-0.666
			C1786.902,1315.901,1786.252,1323.009,1782.173,1323.519z"/>
		<path style="fill:#F99370;" d="M1777.967,1319.61l-3.468,0.666c-4.876,0.758-4.225-6.35-0.146-6.859c0,0,3.468-0.666,3.468-0.666
			C1782.696,1311.993,1782.046,1319.1,1777.967,1319.61z"/>
		<path style="fill:#F99370;" d="M2014.579,1455.135l6.804,4.902c-0.03,0.047-0.061,0.093-0.091,0.139
			c-2.932,4.485-6.899,8.194-11.535,10.88c-4.488,2.6-8.89,5.169-13.836,7.18c-6.481,9.712,20.055-2.034,23.357-2.717
			c0.029,0.061,0.026,0.054,0.055,0.115c-6.089,5.332-12.504,10.312-19.324,14.674c-4.374,11.61,21.239-7.924,24.295-9.668
			c0.019,0.028,0.016,0.024,0.035,0.052c-4.812,6.054-10.416,11.479-16.56,16.181c-3.376,12.154,21.007-9.799,23.373-12.482
			c0.03,0.013,0.059,0.025,0.089,0.037c-3.056,5.365-6.832,10.311-10.847,15.004c-1.602,11.952,16.724-10.378,18.55-13.063
			c1.933-1.071,11.41-10.01,17.075-22.876c1.856-4.216-9.481-15.39-13.254-13.035c-2.831,1.767-11.988,1.768-13.977,2.347
			C2024.157,1453.455,2019.366,1453.325,2014.579,1455.135z"/>
		<path style="fill:#1D3F70;" d="M2029.952,1273.691c-12.061,0-18.834-2.264-19.251-2.408l1.5-4.367
			c0.144,0.05,14.651,4.825,39.169-0.079l0.906,4.528C2043.566,1273.106,2036.075,1273.691,2029.952,1273.691z"/>
		<path style="fill:#1D3F70;" d="M2031.923,1291.461c-15.078,0-24.067-3.505-24.581-3.711l1.712-4.288
			c0.165,0.067,16.673,6.436,42.327,1.452l0.882,4.532C2044.648,1290.926,2037.821,1291.461,2031.923,1291.461z"/>
		<path style="fill:#1D3F70;" d="M2029.027,1309.075c-13.511,0-22.753-3.806-23.328-4.048l1.794-4.256
			c0.2,0.082,20.005,8.177,43.568-0.052l1.522,4.361C2044.006,1308.074,2035.955,1309.075,2029.027,1309.075z"/>
		<path style="fill:#8E4A35;" d="M1998.703,1159.693c0,0,1.022-14.747,6.161-24.682l8.225,4.577L1998.703,1159.693z"/>
		<path style="fill:#F99370;" d="M1996.213,1202.865c12.491,13.519,33.045,16.53,48.386,8.791l0.005,0.001
			c1.143-0.63,2.23-1.328,3.274-2.104l0.015,0.003c49.582-44.974-10.365-125.939-43.09-59.71
			C1993.941,1168.409,1976.227,1177.74,1996.213,1202.865z"/>
		<path style="fill:#C16256;" d="M2018.509,1165.47c-0.425-0.954,0.004-2.071,0.958-2.495c0.955-0.424,2.073,0.005,2.498,0.958
			c0.425,0.954-0.004,2.071-0.959,2.495C2020.053,1166.853,2018.934,1166.423,2018.509,1165.47z"/>
		<path style="fill:#C16256;" d="M2002.758,1161.986c-0.425-0.954,0.004-2.071,0.958-2.495c0.955-0.424,2.073,0.005,2.498,0.959
			c0.425,0.954-0.004,2.071-0.959,2.495C2004.302,1163.369,2003.183,1162.939,2002.758,1161.986z"/>
		<path style="fill:#C16256;" d="M2006.836,1178.588c1.1,0.189,2.234,0.186,3.204-0.07c0.383-0.1,0.61-0.493,0.509-0.873
			c-0.1-0.385-0.499-0.606-0.875-0.509c-2.436,0.643-5.769-0.731-6.18-1.839c-0.144-0.39,0.389-0.742,0.862-0.966
			c4.167-1.984,7.28-9.51,7.41-9.828c0.149-0.366-0.025-0.784-0.392-0.933c-0.379-0.156-0.785,0.027-0.934,0.391
			c-0.03,0.072-3.033,7.331-6.7,9.078c-1.999,0.952-1.777,2.242-1.589,2.752C2002.641,1177.12,2004.679,1178.218,2006.836,1178.588z
			"/>
		<path style="fill:#E57D61;" d="M2007.235,1145.276c10.528-4.866,28.853,1.019,37.98,1.422c0,0-2.752,15.498,12.417,27.431
			c0.584,14.413,2.617,20.798-13.033,37.527l0.005,0.001c1.143-0.63,2.23-1.328,3.274-2.104l0.015,0.003
			C2095.616,1166.695,2040.552,1086.422,2007.235,1145.276z"/>
		<path style="fill:#8E4A35;" d="M2001.108,1113.787c6.486-11.288,24.258-16.682,38.571-1.563
			c11.019,11.641,23.546,12.207,22.686,23.817c22.712,11.774,9.831,36.79,9.831,36.79l-11.587-1.988
			c-12.758-11.471-11.527-27.291-11.527-27.291l0.003-0.002c-2.978-0.009-6.099-0.3-8.831-1.151
			c-8.467-2.64-21.11-4.362-30.973-1.305C1999.417,1144.152,1993.859,1126.403,2001.108,1113.787z"/>
		<path style="fill:#F99370;" d="M2073.366,1182.316c-1.573,5.921-6.714,9.695-11.484,8.429c-4.77-1.266-7.361-7.092-5.789-13.012
			c1.573-5.921,6.714-9.695,11.484-8.429C2072.347,1170.569,2074.939,1176.395,2073.366,1182.316z"/>
		<path style="fill:#C16256;" d="M2062.333,1173.789c0.19-0.063,4.7-1.539,7.065,0.891c0.603,0.618,0.984,1.431,1.171,2.412
			c0,0.002,0,0.004,0.001,0.006c0.017,0.092,0.045,0.174,0.059,0.269c0,0.002,0.001,0.003,0.001,0.004c0,0.001-0.001,0.001,0,0.001
			c0.264,1.821-0.136,4.216-1.205,7.17c-0.121,0.329-0.459,0.519-0.795,0.461c-0.041-0.007-0.081-0.018-0.123-0.032
			c-0.371-0.135-0.565-0.546-0.43-0.917c0.869-2.395,1.254-4.358,1.184-5.86c-4.16,0.522-6.467,5.029-6.49,5.078
			c-0.143,0.292-0.459,0.444-0.765,0.391c-0.065-0.011-0.13-0.033-0.193-0.064c-0.356-0.172-0.502-0.6-0.33-0.956
			c0.112-0.225,2.628-5.265,7.513-5.906c-0.15-0.414-0.346-0.777-0.619-1.057c-1.738-1.786-5.553-0.545-5.588-0.533
			c-0.38,0.123-0.78-0.081-0.906-0.454C2061.756,1174.319,2061.958,1173.915,2062.333,1173.789z"/>
		<path style="fill:#C16256;" d="M2028.356,1163.35c0.151,0.025,0.309,0.01,0.461-0.053c0.428-0.178,0.631-0.668,0.453-1.097
			c-0.108-0.261-2.737-6.421-10.413-8.154c-0.449-0.103-0.903,0.181-1.005,0.635c-0.102,0.453,0.182,0.903,0.635,1.005
			c6.8,1.536,9.135,6.93,9.231,7.159C2027.834,1163.122,2028.081,1163.304,2028.356,1163.35z"/>
		<path style="fill:#C16256;" d="M2002.449,1156.026c0.257,0.043,0.53-0.034,0.73-0.232c2.284-2.259,6.866-1.802,6.912-1.797
			c0.461,0.049,0.876-0.285,0.925-0.746c0.049-0.462-0.283-0.879-0.745-0.925c-0.219-0.024-5.418-0.551-8.275,2.273
			c-0.33,0.326-0.333,0.859-0.006,1.189C2002.119,1155.919,2002.281,1155.998,2002.449,1156.026z"/>
		<path style="fill:#F9F8F3;" d="M2002.483,1186.973l18.07-8.191c0,0,0.608,9.667-6.499,11.953
			C2007.264,1192.919,2002.483,1186.973,2002.483,1186.973z"/>
		<path style="fill:#C16256;" d="M2002.345,1187.802c0.159,0.026,0.327,0.008,0.484-0.064l18.07-8.191
			c0.423-0.191,0.611-0.689,0.419-1.112c-0.192-0.423-0.692-0.61-1.113-0.418l-18.07,8.191c-0.423,0.191-0.61,0.69-0.419,1.113
			C2001.837,1187.585,2002.079,1187.758,2002.345,1187.802z"/>
	</g>
	<g id="_x31_">
		<path style="fill:#8A9EDD;" d="M716.65,1573.236l-91.149,33.562c-1.567,0.577-3.306-0.226-3.883-1.794
			c0.898-1.916-30.903-74.259-24.381-73.93c0.081-0.245,91.299-33.508,91.479-33.705c1.567-0.577,3.306,0.226,3.883,1.794
			l25.844,70.19C719.02,1570.921,718.217,1572.659,716.65,1573.236z"/>
		
			<rect x="612.674" y="1516.877" transform="matrix(0.9384 -0.3455 0.3455 0.9384 -495.5813 323.0409)" style="fill:#FFFFFF;" width="91.335" height="69.505"/>
		<path style="fill:#FCB4B4;" d="M717.732,1542.304c-2.031-5.508-6.104-16.582-8.13-22.089c-1-2.963-5.351,0.035-7.114,0.406
			l-2.827-7.663c-0.396-1.086-1.607-1.622-2.662-1.23l-4.122,1.521c-1.473,0.396-3.434,1.334-2.711,3.206
			c0,0,15.211,41.312,15.211,41.312c0.656,1.863,2.773,1.366,4.144,0.686c1.561-0.873,6.492-1.31,5.357-4.182
			c0,0-2.821-7.668-2.821-7.668C713.643,1545.742,718.891,1545.208,717.732,1542.304z M709.322,1531.414
			c1.639-0.628,2.597,1.957,0.933,2.542C708.62,1534.588,707.667,1531.994,709.322,1531.414z"/>
		<path style="fill:#F49F9F;" d="M713.645,1556.935c-1.872,0.23-7.202,4.07-8.269,0.834c0,0-15.212-41.314-15.212-41.314
			c-0.396-1.076,0.155-2.268,1.231-2.664c0,0,10.537,34.329,26.338,28.511c1.167,2.902-4.102,3.446-5.68,4.303l2.823,7.666
			C715.272,1555.346,714.721,1556.539,713.645,1556.935z"/>
		<path style="fill:#C92828;" d="M561.12,1246.887c0,0-1.706,29.968,12.684,47.689c14.302,17.612-92.408-4.054-92.408-4.054
			l11.617-55.833L561.12,1246.887z"/>
		<path style="fill:#A523A2;" d="M635.866,1492.989c0,0-7.004,8.536-18.054,12.499c-12.279-16.016-28.275-36.684-37.947-55.046
			c-15.228-42.732-31.826-128.945-40.417-166.148C614.518,1296.823,612.982,1432.797,635.866,1492.989z"/>
		<path style="fill:#F99370;" d="M663.143,1514.331c-0.492,1.192-1.814,1.66-2.865,1.051c-3.128-1.659-7.292-2.798-10.676-3.621
			l-26.562,9.742c0,0-4.593-9.95-4.313-15.148c0.269-4.982,13.305-14.288,17.589-12.824c0,0,3.519,5.249,12.215,10.743
			C651.258,1505.997,664.587,1510.12,663.143,1514.331z"/>
		<path style="fill:#CE4ABF;" d="M636.316,1493.531c0,0-6.539,8.861-17.589,12.824c0,0-3.083-1.682-5.022-6.164
			c0,0,15.337-5.566,19.393-14.766C634.354,1486.734,636.316,1490.588,636.316,1493.531z"/>
		<path style="fill:#E57D61;" d="M705.763,1390.487c0,0,12.059-1.697,19.652-1.25l-8.575,17.151c0,0-16.972-8.129-17.776-10.005
			C698.259,1394.507,705.763,1390.487,705.763,1390.487z"/>
		<path style="fill:#F99370;" d="M482.963,1861.458c-0.658,2.82-3.18,5.054-6.289,5.103h-30.936
			c-4.42-0.008-7.529-4.464-6.253-8.535c2.39-8.033,7.91-16.041,6.81-24.641c-0.225-16.861,0.063-50.853,0.012-61.889h34.871
			c-0.674,9.452-3.869,46.998-4.935,63.123C474.909,1844.49,483.212,1852.116,482.963,1861.458z"/>
		<path style="fill:#F99370;" d="M528.115,1331.702c-8.264,20.553-13.746,53.574,10.799,65.061
			c37.063,14.726,80.119,12.403,118.033,1.369c2.115-0.653,4.259-1.391,6.328-2.146c0.115-0.041,0.263-0.099,0.295-0.1l4.129-0.146
			c9.995-0.701,13.98,13.777,5.223,18.351c-1.057,0.54-2.879,1.69-3.925,2.205c-43.936,23.19-121.36,40.39-165.308,10.568
			c-35.735-24.496-39.124-73.984-28.615-112.411C486.325,1278.352,540.193,1295.837,528.115,1331.702z"/>
		<path style="fill:#F99370;" d="M649.979,1861.458c-0.246,2.689-2.498,5.103-5.582,5.103h-77.306
			c-0.823-7.864,1.83-15.052,1.402-23.67c0.006-0.006,0.006-0.006,0-0.012c0.352-22.883-4.324-50.671-5.99-71.383h44.43
			c-0.494,8.831-6.921,45.736-7.032,61.548c4.713,17.784,30.424,12.257,42.225,19.239
			C645.679,1854.228,650.18,1857.09,649.979,1861.458z"/>
		<path style="fill:#EB5648;" d="M650.368,1861.458c-0.054,2.689-2.3,5.103-5.265,5.103h-78.013
			c-0.924-7.872,1.132-15.745,1.402-23.67c0.006-0.006,0.006-0.006,0-0.012c0.102-2.013,0.114-4.019-0.018-6.019
			c25.151,30.384,70.392,1.96,81.355,22.275h0.006C650.212,1859.887,650.381,1860.694,650.368,1861.458z"/>
		<path style="fill:#EB5648;" d="M483.082,1861.458c-0.641,2.875-3.264,5.108-6.409,5.103h-30.936
			c-8.972-0.628-6.853-10.476-3.306-16.123c-0.001,0,17.255-14.016,37.541-0.024
			C481.702,1853.737,483.648,1857.648,483.082,1861.458z"/>
		<path style="fill:#1D3F70;" d="M438.853,1831.173c0,0,25.136,9.316,42.606,1.692c10.63-56.778,41.433-171.348,51.913-281.996
			c0.005-4.474,34.687,155.637,25.818,278.395c11.087,3.924,35.189,9.919,46.389,0.63c8.085-57.799,29.746-221.601-3.816-395.22
			c0,0-71.268,8.976-134.381-7.466c0,0-27.542,47.493-20.598,149.081C452.569,1674.886,448.237,1773.022,438.853,1831.173z"/>
		<path style="fill:#E57D61;" d="M939.747,1296.179c-9.492,14.128-25.497,35.317-35.602,49.325
			c-23.467,31.798-40.082,61.38-80.741,73.247c-24.34,7.404-49.426,6.825-73.337,1.422c-11.406-2.613-22.361-6.265-32.728-11.041
			c-5.233-2.411-7.521-8.607-5.11-13.84c1.787-3.879,5.654-6.14,9.666-6.068c38.68,0.526,85.948-2.365,108.566-38.04
			c2.379-4.033,4.563-8.189,6.947-12.222c16.557-28.257,35.601-55.504,59.094-78.502
			C921.014,1234.496,960.285,1267.436,939.747,1296.179z"/>
		<path style="fill:#163860;" d="M446.221,1824.102c5.477-48.34,16.33-152.424,12.226-218.378
			c-2.193-66.83,7.32-100.608,7.417-100.942c1.228-2.192,24.506-12.47,34.507-37.998c0.676-1.856,3.721-0.845,2.957,1.116
			c-8.768,23.289-30.535,36.154-34.596,38.39C453.971,1562.268,469.641,1763.465,446.221,1824.102z"/>
		<path style="fill:#CE4ABF;" d="M607.639,1467.345c-36.736,23.06-124.955,10.865-154.552,2.318
			c-6.743-18.154,11.145-42.353,7.504-65.351c-8.503-53.762,18.673-107.061,50.62-118.512c-0.012-0.157-0.024-2.918-0.039-2.793
			l28.689,1.713c14.521,10.344,27.266,21.905,41.286,41.806c21.195,30.046,5.262,44.769,11.433,73.288
			C593.812,1413.63,616.366,1460.819,607.639,1467.345z"/>
		<path style="fill:#D8B09A;" d="M511.239,1285.786c0,0-0.03,0.012-0.096,0.036C511.143,1285.6,511.173,1285.583,511.239,1285.786z"
			/>
		<path style="fill:#1D3F70;" d="M893.865,1364.356c-18.962,87.203-134.496,67.847-171.233,47.205
			c6.525-8.564,2.782-22.324,2.782-22.324c127.674-3.956,112.131-113.977,179.411-136.719
			C904.826,1252.518,909.005,1315.136,893.865,1364.356z"/>
		<path style="fill:#F99370;" d="M972.289,1861.705l1.218-0.595c0,0.798,1.054,3.57,1.906,3.57l36.007,0.694
			c0.852,0,1.377-1.502,1.377-2.3l3.071-0.823c0-5.049-0.444-6.879-2.826-10.786c-8.752-10.766,1.689-59.6,1.394-72.344
			c1.726-3.545-37.791-0.709-38.477-1.572c-0.901,0.001-1.61,0.72-1.538,1.56c-0.395,12.665,9.455,61.659,1.071,72.333
			C973.111,1855.355,972.281,1856.655,972.289,1861.705z"/>
		<path style="fill:#F99370;" d="M816.206,1866.557h71.721c6.157-0.224,6.26-6.045,5.059-10.851
			c-3.951-16.714,3.034-55.09,4.325-72.273c0.345-3.147-2.293-5.883-5.672-5.883c-52.238-0.196-36.043-5.626-31.555,48.982
			c2.224,20.226-20.55,21.599-34.218,24.295c-5.619,1.319-11.618,3.404-14.37,7.372
			C808.916,1861.748,811.62,1866.557,816.206,1866.557z"/>
		<path style="fill:#103663;" d="M895.717,1859.59c-0.214,3.434-2.005,7.041-6.01,6.967c0,0-74.395,0-74.395,0
			c-18.582-5.362,8.735-29.626,42.045-27.735c2.646,0.594,19.621,2.4,34.467,0.474
			C891.824,1839.296,896.66,1847.638,895.717,1859.59z"/>
		<path style="fill:#103663;" d="M1010.163,1866.558h-31.797c-15.331-1.615-4.607-27.66,15.894-27.807
			C1015.553,1838.599,1025.433,1865.06,1010.163,1866.558z"/>
		<path style="fill:#E8C0A6;" d="M833.047,1857.18c-0.591,0-1.154-0.344-1.404-0.922c-2.857-6.598-8.191-8.683-8.245-8.703
			c-1.854-0.668-0.784-3.578,1.065-2.868c0.268,0.099,6.588,2.506,9.986,10.355C834.901,1856.022,834.119,1857.201,833.047,1857.18z
			"/>
		<path style="fill:#E8C0A6;" d="M845.331,1855.791c-0.642,0-1.24-0.407-1.452-1.05c-2.508-7.586-9.643-11.166-9.715-11.2
			c-1.787-0.842-0.43-3.645,1.341-2.75c0.34,0.165,8.356,4.149,11.279,12.99C847.123,1854.748,846.35,1855.808,845.331,1855.791z"/>
		<path style="fill:#E8C0A6;" d="M859.31,1854.182c-0.621,0-1.205-0.381-1.434-0.997c-2.961-7.966-9.76-12.249-9.828-12.292
			c-1.699-1.016-0.064-3.673,1.611-2.6c0.315,0.195,7.763,4.888,11.085,13.827C861.129,1853.093,860.351,1854.201,859.31,1854.182z"
			/>
		<path style="fill:#163860;" d="M893.865,1364.356c-14.652,65.92-83.584,64.42-83.584,64.42s23.038-10.061,29.939-50.26
			c6.896-40.194,33.041-80.562,33.041-80.562L893.865,1364.356z"/>
		<path style="fill:#E8C0A6;" d="M1005.665,1847.652c-11.945-6.414-23,2.065-24.493-0.932c-0.329-0.778,0.033-1.675,0.81-2.005
			c0.559-0.238,13.814-5.748,24.42,0.067C1007.784,1845.48,1007.188,1847.71,1005.665,1847.652z"/>
		<path style="fill:#0F2E54;" d="M810.106,1859.59h85.611c-0.315,2.447-1.037,4.824-2.348,6.967h-78.057
			C811.469,1866.561,808.741,1862.96,810.106,1859.59z"/>
		<path style="fill:#0F2E54;" d="M1010.163,1866.558h-31.797c-4.044,0.002-7.298-3.179-7.051-6.967h45.9
			C1017.457,1863.38,1014.206,1866.56,1010.163,1866.558z"/>
		<path style="fill:#E8C0A6;" d="M1019.453,1828.565c0,0-33.912,7.713-51.383-0.575c-9.092-53.385-34.337-202.067-43.129-303.948
			c-0.337,5.941-18.808,245.522-22.324,303.948c-12.075,3.785-36.322,8.333-49.89-0.816c-6.097-61.493-25.674-263.994,3.816-429.362
			c0,0,80.817,8.418,143.93-9.439C1017.835,1440.731,1022.452,1765.552,1019.453,1828.565z"/>
		<path style="fill:#D1A68F;" d="M865.775,1821.885c-12.261-117.041-5.438-265.471,8-337.922
			c4.039,1.557-4.678,38.702-7.201,100.832C861.368,1639.435,864.561,1731.139,865.775,1821.885z"/>
		<path style="fill:#D1A68F;" d="M992.769,1821.885c-10.767-182.532-39.206-351.301-36.456-353.946
			C960.148,1468.503,988.755,1640.078,992.769,1821.885z"/>
		<path style="fill:#F99370;" d="M918.444,1247.46c-1.764-15.38,0.642-37.56,2.787-46.696c1.128-4.934,4.659-8.666,8.628-9.905
			c10.152-3.526,22.171,5.124,19.047,16.566c-0.92-0.579-3.867,32.047-1.833,41.105
			C973.867,1256.569,893.28,1283.001,918.444,1247.46z"/>
		<path style="fill:#E57D61;" d="M949.18,1205.941c-0.07,0.496-0.158,0.999-0.274,1.485c-0.664-0.44-2.522,17.562-2.538,30.628
			c-12.278,5.583-25.917,3.329-28.422,2.815c-0.477-18.124-1.231-45.554,11.914-50.009
			C939.442,1186.761,950.866,1195.496,949.18,1205.941z"/>
		<path style="fill:#F99370;" d="M1005.9,1486.781c0,0,0.431,5.998,0.037,11.128l13.997,5.13l7.44-3.126
			c0,0-0.699-5.748,1.817-12.414C1031.706,1480.832,1005.9,1486.781,1005.9,1486.781z"/>
		<path style="fill:#1D3F70;" d="M1011.707,1480.1c-4.366,3.726-10.916,6.639-18.935,8.832v0.005
			c-45.967,12.585-140.209,1.637-147.987-14.563c-6.214-12.947-6.633-53.361,2.152-96.268
			c11.624-59.579,29.895-101.55,71.492-130.631c-0.206,0.844-5.508,22.896,28.643,1.055l10.501,1.874
			C961.109,1307.506,1038.097,1453.686,1011.707,1480.1z"/>
		<path style="fill:#D1A68F;" d="M902.618,1827.99c0.071-0.058-4.412,1.529-10.469,2.61c0,0,17.039-237.762,19.578-269.492
			c2.538-31.73,13.215-37.066,13.215-37.066S902.335,1822.856,902.618,1827.99z"/>
		<path style="fill:#D1A68F;" d="M903.289,1816.464c-0.456,6.859-0.705,10.96-0.672,11.527c-12.075,3.785-36.322,8.333-49.89-0.816
			c0,0-0.431-3.767-1.137-10.711C851.591,1816.464,875.366,1826.701,903.289,1816.464z"/>
		<path style="fill:#D1A68F;" d="M1019.453,1828.565c0,0-33.912,7.713-51.383-0.575c0,0-0.722-4.132-1.983-11.527
			c0,0,23.888,6.268,53.777,0C1019.997,1823.672,1019.345,1827.967,1019.453,1828.565z"/>
		<path style="fill:#163860;" d="M559.19,1829.265c0,0,32.411,12.07,46.389,0.63c0,0,0.526-4.041,1.529-11.101
			c0,0-24.21,8.629-47.222-3.798l-0.008,0.008C559.704,1819.783,559.471,1824.537,559.19,1829.265z"/>
		<path style="fill:#163860;" d="M438.853,1831.173c0,0,25.136,9.316,42.606,1.692c0,0,0.98-4.978,2.738-13.837
			c0,0-15.655,8.196-43.055-2.008C440.388,1822.678,439.616,1827.44,438.853,1831.173z"/>
		<path style="fill:#163860;" d="M559.878,1815.005c-0.174,4.778-0.406,9.532-0.688,14.26c0,0,3.6,1.344,8.926,2.704
			c-0.119-85.302-0.022-222.967-34.744-281.1C533.372,1550.87,564.872,1681.197,559.878,1815.005z"/>
		<path style="fill:#163860;" d="M533.373,1552.451c-4.118-0.195,2.519-12.624,4.947-28.218c0.383-2.004,3.543-1.373,3.097,0.637
			C537.382,1540.949,536.389,1551.359,533.373,1552.451z"/>
		<path style="fill:#F99370;" d="M663.065,1396.204c13.481-7.025,27.601-5.459,48.659,2.105c7.325,0.892,12.239,14.607,0.471,16.832
			c-17.19,3.25-39.304-1.25-39.304-1.25L663.065,1396.204z"/>
		<path style="fill:#E57D61;" d="M684.953,1399.281c6.421-6.132,15.445-9.161,24.268-8.867c5.582-0.148,9.425,8.213,3.827,8.2
			c-6.961-1.182-18.111,0.201-24.074,4.208C686.428,1405.446,682.39,1402.01,684.953,1399.281z"/>
		<path style="fill:#E57D61;" d="M691.256,1415.267c-2.699,4.793-8.43,1.484-5.629-3.25
			C688.327,1407.224,694.058,1410.533,691.256,1415.267z"/>
		<path style="fill:#E57D61;" d="M696.961,1415.847c-2.699,4.793-8.43,1.484-5.629-3.25
			C694.031,1407.805,699.763,1411.113,696.961,1415.847z"/>
		<path style="fill:#E57D61;" d="M702.785,1416.427c-2.699,4.793-8.43,1.484-5.629-3.25
			C699.855,1408.385,705.586,1411.694,702.785,1416.427z"/>
		<path style="fill:#E57D61;" d="M708.704,1416.427c-2.699,4.793-8.43,1.484-5.629-3.25
			C705.774,1408.385,711.506,1411.694,708.704,1416.427z"/>
		<path style="fill:#F4D4BE;" d="M957.576,1250.403c0.185,13.028-33.238,24.53-35.132,24.547l-4.007-11.855
			c-5.143,1.269-9.673,8.47-9.673,8.47c-14.745-14.643-1.26-26.09,9.673-24.107c0,0,0,0.008-0.008,0.017
			c-0.206,0.842-2.536,20.173,28.517,0.383C950.944,1246.007,957.576,1250.403,957.576,1250.403z"/>
		
			<rect x="941.591" y="1546.756" transform="matrix(0.9898 -0.1428 0.1428 0.9898 -218.6967 162.2966)" style="fill:#8C4225;" width="159.903" height="116.566"/>
		<polygon style="fill:#7F341C;" points="950.732,1674.14 941.603,1668.913 924.941,1553.546 934.07,1558.773 		"/>
		<polygon style="fill:#7F341C;" points="924.941,1553.546 1083.258,1530.744 1092.354,1535.938 934.07,1558.773 		"/>
		<path style="fill:#8C4225;" d="M1043.367,1536.487c-15.506-31.831-55.623-22.843-64.614,9.308
			c-0.156,2.623,1.599,4.989,3.875,4.641c2.726-0.453,3.052-3.783,4.211-5.804c6.466-14.66,24.122-24.205,38.806-15.722
			c4.502,2.427,8.58,6.467,11.439,11.044C1039.504,1543.821,1044.069,1540.311,1043.367,1536.487z"/>
		<polygon style="fill:#99452B;" points="934.07,1558.773 1021.543,1605.039 1092.354,1535.938 		"/>
		<path style="fill:#F4D4BE;" d="M1023.846,1614.898c-3.634,1.056-7.813-0.671-8.355-4.709c-0.541-4.803-3.65-13.945,3.749-15.01
			c3.634-1.056,7.812,0.671,8.354,4.708C1028.135,1604.691,1031.244,1613.833,1023.846,1614.898z"/>
		<path style="fill:#F99370;" d="M1005.937,1497.909c0,0-7.286,15.654-7.286,32.589l24.07,1.374
			c7.821-11.316,4.654-31.959,4.654-31.959L1005.937,1497.909z"/>
		<path style="fill:#163860;" d="M1011.707,1480.1c-4.366,3.726-10.916,6.639-18.935,8.832
			c1.874-23.038-1.879-59.501-18.079-100.561c-16.195-41.06-15.466-83.274-15.466-83.274l11.949,0.897
			C992.164,1364.808,1030.925,1463.7,1011.707,1480.1z"/>
		<path style="fill:#1D3F70;" d="M957.576,1250.403c87.718,19.394,112.16,157.444,69.798,249.51c0,0-9.397,3.126-21.437-2.003
			c0,0-0.412-65.796-27.022-118.855C952.304,1325.994,957.576,1250.403,957.576,1250.403z"/>
		<path style="fill:#CE3932;" d="M483.082,1861.458c-0.641,2.875-3.264,5.108-6.409,5.103h-30.936
			c-3.137,0.014-5.755-2.231-6.397-5.103H483.082z"/>
		<path style="fill:#CE3932;" d="M650.368,1861.458c-0.054,2.689-2.3,5.103-5.265,5.103h-78.013
			c-0.268-1.749-0.353-3.268-0.263-5.103H650.368z"/>
		<path style="fill:#A523A2;" d="M658.334,1421.801c-55.103,44.915-163.365,52.674-197.485-14.12
			c-31.373-62.034-2.445-123.387,50.39-121.889c-0.031-0.001,10.296,36.839,8.924,65.823l0.153,11.047
			c0.193,13.892,8.499,26.476,21.316,31.84c31.94,13.367,87.293,9.401,111.145,4.688
			C664.078,1410.451,658.334,1421.801,658.334,1421.801z"/>
		<path style="fill:#CE4ABF;" d="M660.412,1420.736c-2.823,3.265-8.208,5.754-8.208,5.754c2.552-18.795-7.136-26.011-7.136-26.011
			c4.162-1.967,8.851-1.288,8.851-1.288C663.065,1407.993,660.412,1420.736,660.412,1420.736z"/>
		<path style="fill:#E57D61;" d="M711.172,1403.876c-6.993-0.234-17.365-0.056-14.071-1.883c0.126,0.011,12.675,1.219,20.792,0.402
			C720.997,1404.194,712.313,1403.79,711.172,1403.876z"/>
		<path style="fill:#E57D61;" d="M708.654,1408.924c-0.171-0.029-14.915-0.047-11.094-2.041c12.293,1.887,21.472,0.024,21.564,0.006
			C722.08,1408.343,715.353,1408.811,708.654,1408.924z"/>
		<path style="fill:#F99370;" d="M1004.949,1531.873c-2.56,4.869-8.384,1.727-5.72-3.086
			C1001.788,1523.919,1007.612,1527.061,1004.949,1531.873z"/>
		<path style="fill:#F99370;" d="M1010.668,1532.288c-2.559,4.869-8.384,1.727-5.72-3.086
			C1007.507,1524.334,1013.331,1527.476,1010.668,1532.288z"/>
		<path style="fill:#F99370;" d="M1016.506,1532.7c-2.559,4.869-8.384,1.727-5.72-3.086
			C1013.345,1524.746,1019.169,1527.887,1016.506,1532.7z"/>
		<path style="fill:#F99370;" d="M1022.423,1532.529c-2.56,4.869-8.384,1.727-5.721-3.086
			C1019.262,1524.575,1025.086,1527.716,1022.423,1532.529z"/>
		<path style="fill:#A523A2;" d="M546.679,1289.715c-1.363,16.367-30.167,5.62-31.493,3.498c-0.426-1.13-4.745-9.079-4.013-10.206
			l28.689,1.713C539.863,1284.72,542.486,1286.415,546.679,1289.715z"/>
		<path style="fill:#C92828;" d="M509.39,1168.22c35.196-5.479,69.554,38.306,49.591,77.761L509.39,1168.22z"/>
		<path style="fill:#F99370;" d="M539.865,1284.719c1.764-15.38-0.642-37.56-2.787-46.696c-4.08-18.032-32.247-11.165-27.674,6.661
			c0.921-0.579,1.769,38.324,1.769,38.324C515.764,1290.3,539.867,1296.47,539.865,1284.719z"/>
		<path style="fill:#E57D61;" d="M510.986,1275.75c12.278,5.583,26.883,2.637,29.388,2.122c3.968-60.801-26.387-68.905-29.543-7.974
			L510.986,1275.75z"/>
		<path style="fill:#F99370;" d="M489.838,1231.167c2.062,12.792,6.38,27.21,16.483,35.671h0.017
			c4.081,3.391,9.056,5.549,14.327,6.587c29.848,8.348,64.853-26.351,41.527-51.625c-8.477-7.832-10.275-21.708-17.031-29.498
			c-9.825-14.258-31.387-13.52-43.029-1.891C491.61,1200.925,488.013,1215.415,489.838,1231.167z"/>
		<path style="fill:#C16256;" d="M538.656,1223.278c1.171-2.223-2.348-4.011-3.453-1.754
			C534.032,1223.747,537.551,1225.535,538.656,1223.278z"/>
		<path style="fill:#C16256;" d="M554.935,1220.542c1.171-2.223-2.348-4.01-3.453-1.754
			C550.311,1221.011,553.83,1222.798,554.935,1220.542z"/>
		<path style="fill:#C16256;" d="M548.778,1237.382c-0.917-0.092-2.832,0.083-2.624-1.229c0.124-0.386,0.538-0.596,0.922-0.474
			c2.467,0.874,8.447-0.836,5.579-2.591c-4.154-2.25-6.942-10.112-7.059-10.445c-0.326-0.888,1.082-1.389,1.383-0.484
			c0.027,0.076,2.718,7.66,6.373,9.641C557.837,1234.952,552.322,1237.335,548.778,1237.382z"/>
		<path style="fill:#E57D61;" d="M489.838,1231.167c2.062,12.792,6.38,27.21,16.483,35.671h0.017
			c-5.6-6.952-9.092-22.506-9.092-22.506l2.646-6.919c44.415-14.335,40.701-50.077,40.701-50.077
			c-6.626-5.79-15.665-6.89-24.176-4.774C495.566,1187.955,487.215,1210.475,489.838,1231.167z"/>
		<path style="fill:#C92828;" d="M535.862,1183.851c-2.239-1.466-24.33-14.581-26.472-15.631c0,0-17.673,11.881-16.088,14.5
			c-11.526,9.78-15.53,28.408-7.962,43.254l14.266,7.874C539.353,1219.41,535.862,1183.851,535.862,1183.851z"/>
		<path style="fill:#A523A2;" d="M545.089,1306.503c0.058,3.968-6.175,3.968-6.117,0
			C538.914,1302.535,545.148,1302.535,545.089,1306.503z"/>
		<path style="fill:#A523A2;" d="M551.206,1319.655c0.058,3.968-6.175,3.968-6.117,0
			C545.031,1315.686,551.265,1315.686,551.206,1319.655z"/>
		<path style="fill:#A523A2;" d="M557.323,1333.876c0.058,3.968-6.175,3.968-6.117,0
			C551.148,1329.908,557.381,1329.908,557.323,1333.876z"/>
		<path style="fill:#E57D61;" d="M1004.44,1533.25c-1.44-0.141,0.369-7.358,1.484-12.516c0.09-0.319,0.424-0.505,0.739-0.414
			c0.318,0.09,0.504,0.421,0.414,0.739C1005.303,1526.406,1005.723,1532.933,1004.44,1533.25z"/>
		<path style="fill:#E57D61;" d="M1010.195,1533.25c-1.47-0.142,0.59-6.899,1.74-12.006c0.094-0.317,0.428-0.501,0.745-0.404
			c0.317,0.094,0.498,0.427,0.404,0.744C1011.299,1526.751,1011.449,1532.884,1010.195,1533.25z"/>
		<path style="fill:#E57D61;" d="M1016.507,1533.3c-1.597-0.344,1.309-6.089,1.103-11.897c0.006-0.331,0.282-0.595,0.611-0.587
			c0.331,0.006,0.593,0.28,0.587,0.611c-0.104,5.192-1.656,11.174-1.722,11.426C1017.015,1533.121,1016.772,1533.3,1016.507,1533.3z
			"/>
		<path style="fill:#C92828;" d="M534.455,1172.347c0,0-25.788-22.437-52.983-3.221c-30.038,21.225-16.269,57.522-29.919,73.609
			c-19.535,23.024-17.168,47.803,1.278,55.902c13.877,6.093,38.017,8.731,58.156,4.89c6.447-1.23,13.003-5.243,5.544-14.956
			c-7.769-10.117-19.359-27.091-21.504-42.59l4.579-12.133L534.455,1172.347z"/>
		<path style="fill:#F99370;" d="M481.714,1237.63c3.316,14.581,20.76,10.892,17.891-3.782
			C496.289,1219.267,478.845,1222.956,481.714,1237.63z"/>
		<path style="fill:#C16256;" d="M486.328,1240.635c-0.314,0-0.604-0.203-0.7-0.519c-3.312-9.26,1.715-13.127,7.808-10.629
			c0.887,0.336,0.346,1.721-0.534,1.364c-5.376-2.088-8.57,0.981-5.872,8.837C487.178,1240.148,486.81,1240.642,486.328,1240.635z"
			/>
		<path style="fill:#C16256;" d="M493.168,1239.61c-1.329-0.175-2.063-5.54-7.717-6.116c-0.404-0.027-0.71-0.376-0.683-0.78
			c0.026-0.404,0.382-0.711,0.779-0.683C491.106,1232.41,495.441,1239.42,493.168,1239.61z"/>
		<path style="fill:#F4D4BE;" d="M489.723,1244.336c-0.031,2.134,3.321,2.134,3.29,0
			C493.044,1242.202,489.692,1242.202,489.723,1244.336z"/>
		<path style="fill:#163260;" d="M903.396,1171.161c0,0-5.601-23.112,14.439-31.954l13.561,8.927L903.396,1171.161z"/>
		<path style="fill:#F99370;" d="M969.835,1190.751c-1.298,13.192-4.787,28.186-14.564,37.469l-0.015-0.002
			c-0.398,0.376-0.793,0.724-1.218,1.067c-0.002,0.015-0.016,0.013-0.018,0.028c-14.482,11.106-35.586,11.12-51.26-0.219
			l-0.015-0.002c-12.485-10.293-17.15-24.904-11.649-36.728c3.65-6.998,10.762-13.393,12.301-21.21
			C912.727,1123.742,974.904,1139.716,969.835,1190.751z"/>
		<path style="fill:#C16256;" d="M919.495,1185.802c-1.336-2.195,2.142-4.244,3.414-2.01
			C924.244,1185.987,920.766,1188.036,919.495,1185.802z"/>
		<path style="fill:#C16256;" d="M902.701,1184.043c-1.336-2.195,2.142-4.244,3.413-2.01
			C907.451,1184.228,903.973,1186.277,902.701,1184.043z"/>
		<path style="fill:#E57D61;" d="M969.835,1190.751c-1.298,13.192-4.787,28.186-14.564,37.469l-0.015-0.002
			c-0.398,0.376-0.793,0.724-1.218,1.067c12.501-19.592,10.174-24.146,7.031-39.023c-14.079-12.425-11.988-27.144-26.242-28.583
			c-14.252-1.454-26.159-4.639-26.159-4.639C928.222,1124.699,974.388,1149.436,969.835,1190.751z"/>
		<path style="fill:#C16256;" d="M908.412,1200.807c-3.234-0.427-7.244-2.356-3.38-5.371c3.607-2.255,5.872-10.168,5.895-10.247
			c3.648-2.739-1.003,9.008-5.1,11.518c-2.819,1.977,3.396,3.334,5.86,2.29C914.994,1199.886,909.808,1201.384,908.412,1200.807z"/>
		<path style="fill:#163260;" d="M973.977,1173.207c-0.512-38.183-23.955-39.496-23.955-39.496l0,0.002
			c-17.261-28.842-63.418-20.151-47.947,11.856c8.624,19.618,37.83,1.828,51.297,27.217c5.413,10.204,8.762,16.498,19.374,22.554
			C972.746,1195.34,975.448,1183.682,973.977,1173.207z"/>
		<path style="fill:#F99370;" d="M978.54,1196.834c-2.03,14.954-20.872,12.182-18.506-2.724
			C962.063,1179.156,980.906,1181.929,978.54,1196.834z"/>
		<path style="fill:#C16256;" d="M973.896,1200.193c-0.446-0.046-0.76-0.483-0.652-0.921c1.07-4.487,0.834-7.515-0.682-8.755
			c-3.047-2.184-5.829,1.176-6.871-0.257c-0.358-1.582,4.582-3.008,7.816-0.908C975.172,1190.317,976.843,1196.906,973.896,1200.193
			z"/>
		<path style="fill:#C16256;" d="M907.761,1211.565c-2.704-0.023-4.975-1.648-2.464-2.047c0.296,0.113,7.387,2.744,15.768-3.534
			c0.33-0.249,0.801-0.181,1.049,0.151C919.264,1211.576,909.952,1211.755,907.761,1211.565z"/>
		<path style="fill:#C16256;" d="M928.834,1181.623c-0.228,0-0.452-0.104-0.598-0.3c-3.536-4.765-9.368-5.072-9.425-5.075
			c-0.41-0.017-0.729-0.364-0.71-0.774c0.017-0.411,0.408-0.731,0.774-0.71c0.268,0.011,6.603,0.346,10.556,5.673
			c0.245,0.33,0.176,0.795-0.154,1.04C929.142,1181.576,928.987,1181.623,928.834,1181.623z"/>
		<path style="fill:#C16256;" d="M903.131,1176.756c-0.247,0-0.487-0.122-0.629-0.346c-0.219-0.346-0.116-0.805,0.23-1.024
			c0.173-0.11,4.305-2.678,9.015-1.37c0.396,0.11,0.627,0.52,0.517,0.916c-0.11,0.396-0.516,0.629-0.915,0.517
			c-4.064-1.131-7.785,1.17-7.822,1.193C903.404,1176.719,903.267,1176.756,903.131,1176.756z"/>
		<path style="fill:#C16256;" d="M966.13,1199.284c-0.075,0-0.151-0.011-0.226-0.035c-0.391-0.125-0.606-0.544-0.482-0.934
			c0.081-0.252,2.05-6.166,8.93-6.746c0.4-0.025,0.769,0.269,0.804,0.678c0.034,0.409-0.269,0.769-0.678,0.804
			c-5.903,0.496-7.623,5.665-7.64,5.716C966.736,1199.082,966.445,1199.284,966.13,1199.284z"/>
		<path style="fill:#C16256;" d="M529.593,1221.15c-0.125,0-0.251-0.035-0.363-0.108c-0.309-0.2-0.398-0.613-0.197-0.924
			c0.167-0.257,4.159-6.296,11.415-6.599c0.368,0.001,0.68,0.271,0.696,0.64c0.015,0.369-0.271,0.68-0.64,0.696
			c-6.553,0.273-10.312,5.934-10.349,5.991C530.026,1221.043,529.811,1221.15,529.593,1221.15z"/>
		<path style="fill:#C16256;" d="M555.033,1213.736c-0.107,0.001-0.215-0.025-0.315-0.079c-4.34-2.327-8.813-0.022-8.857,0.002
			c-0.326,0.174-0.731,0.046-0.903-0.278c-0.172-0.326-0.049-0.73,0.276-0.902c0.208-0.11,5.138-2.67,10.116,0.001
			c0.325,0.175,0.448,0.579,0.273,0.904C555.502,1213.609,555.272,1213.736,555.033,1213.736z"/>
		<path style="fill:#C16256;" d="M543.913,1250.969c-1.619,0-3.336-0.847-4.511-2.396c-1.833-2.416-1.663-5.641,0.377-7.188
			c2.04-1.547,5.19-0.839,7.023,1.576l0,0c1.832,2.416,1.663,5.64-0.377,7.188C545.694,1250.703,544.819,1250.969,543.913,1250.969z
			 M542.303,1242.058c-0.59,0-1.151,0.169-1.618,0.522c-1.381,1.048-1.42,3.33-0.088,5.087c1.334,1.757,3.541,2.333,4.922,1.286
			c1.381-1.048,1.42-3.329,0.088-5.086C544.725,1242.704,543.459,1242.058,542.303,1242.058z"/>
	</g>
</g>
</svg>
